PathFileType        4      (X/Y/Z)      C:\Users\pc\Desktop\IMUTRC\Sujet_01\Sujet_01_velo_100.trc         
DataRate	CameraRate	NumFrames	NumMarkers	Units	OrigDataRate	OrigDataStartFrame	OrigNumFrames
60.0	60.0	4	64	mm	60.0	374	995
Frame#	Time	pHipOrigin			pRightASI			pLeftASI			pRightCSI			pLeftCSI			pRightIschialTub			pLeftIschialTub			pSacrum			pL5SpinalProcess			pL3SpinalProcess			pT12SpinalProcess			pIJ			pT4SpinalProcess			pT8SpinalProcess			pPX			pC7SpinalProcess			pTopOfHead			pRightAuricularis			pLeftAuricularis			pBackOfHead			pRightAcromion			pLeftAcromion			pRightArmLatEpicondyle			pRightArmMedEpicondyle			pLeftArmLatEpicondyle			pLeftArmMedEpicondyle			pRightUlnarStyloid			pRightRadialStyloid			pRightOlecranon			pLeftUlnarStyloid			pLeftRadialStyloid			pLeftOlecranon			pRightTopOfHand			pRightPinky			pRightBallHand			pLeftTopOfHand			pLeftPinky			pLeftBallHand			pRightGreaterTrochanter			pRightKneeLatEpicondyle			pRightKneeMedEpicondyle			pRightPatella			pLeftGreaterTrochanter			pLeftKneeLatEpicondyle			pLeftKneeMedEpicondyle			pLeftPatella			pRightTibialTub			pRightLatMalleolus			pRightMedMalleolus			pLeftTibialTub			pLeftLatMalleolus			pLeftMedMalleolus			pRightHeelFoot			pRightFirstMetatarsal			pRightFifthMetatarsal			pRightPivotFoot			pRightHeelCenter			pRightToe			pLeftHeelFoot			pLeftFirstMetatarsal			pLeftFifthMetatarsal			pLeftPivotFoot			pLeftHeelCenter			pLeftToe			
		X1	Y1	Z1	X2	Y2	Z2	X3	Y3	Z3	X4	Y4	Z4	X5	Y5	Z5	X6	Y6	Z6	X7	Y7	Z7	X8	Y8	Z8	X9	Y9	Z9	X10	Y10	Z10	X11	Y11	Z11	X12	Y12	Z12	X13	Y13	Z13	X14	Y14	Z14	X15	Y15	Z15	X16	Y16	Z16	X17	Y17	Z17	X18	Y18	Z18	X19	Y19	Z19	X20	Y20	Z20	X21	Y21	Z21	X22	Y22	Z22	X23	Y23	Z23	X24	Y24	Z24	X25	Y25	Z25	X26	Y26	Z26	X27	Y27	Z27	X28	Y28	Z28	X29	Y29	Z29	X30	Y30	Z30	X31	Y31	Z31	X32	Y32	Z32	X33	Y33	Z33	X34	Y34	Z34	X35	Y35	Z35	X36	Y36	Z36	X37	Y37	Z37	X38	Y38	Z38	X39	Y39	Z39	X40	Y40	Z40	X41	Y41	Z41	X42	Y42	Z42	X43	Y43	Z43	X44	Y44	Z44	X45	Y45	Z45	X46	Y46	Z46	X47	Y47	Z47	X48	Y48	Z48	X49	Y49	Z49	X50	Y50	Z50	X51	Y51	Z51	X52	Y52	Z52	X53	Y53	Z53	X54	Y54	Z54	X55	Y55	Z55	X56	Y56	Z56	X57	Y57	Z57	X58	Y58	Z58	X59	Y59	Z59	X60	Y60	Z60	X61	Y61	Z61	X62	Y62	Z62	X63	Y63	Z63	X64	Y64	Z64	
374	6.217	0.0	1250.01138	7.654112177073829E-14	59.532809999999984	1326.90053	134.8818100000001	78.60701000000002	1343.01289	-113.2011999999999	25.886409999999987	1393.24556	114.32670000000009	41.58411000000002	1406.45533	-89.68425999999991	-59.41434000000001	1199.48254	43.65740000000007	-51.59510999999999	1206.11704	-58.34807999999994	-59.3551	1275.06848	-2.961829999999929	-15.34229	1364.98968	3.5542000000000815	36.72671	1458.6428	12.558170000000095	87.78869	1542.52187	20.555110000000106	316.08666	1583.51361	73.21648000000015	211.65248	1671.00612	41.70259000000013	148.74318	1618.04857	30.09221000000012	233.03691	1507.63149	58.28884000000012	246.06896	1699.26199	47.981670000000136	406.0671	1874.66165	62.79083000000016	355.06436	1796.05465	129.72822000000016	382.96482	1779.6461	1.9548100000001558	322.66193	1807.19113	53.253730000000154	221.95965999999999	1658.09253	225.33614000000014	286.76453	1634.99025	-120.96119999999988	292.03658999999993	1440.93104	311.5254400000002	275.92422999999997	1413.26754	268.10499000000016	398.30711	1413.68219	-99.10287999999987	360.4549	1391.7054	-67.64822999999987	376.92267999999996	1276.60863	405.5339700000001	411.75381999999996	1280.2813	378.9367300000001	265.49857999999995	1429.32066	303.05460000000016	544.62158	1271.57352	-101.35387999999986	554.27715	1281.05138	-59.53280999999985	373.36848	1401.59792	-105.55967999999987	532.77426	1210.32284	460.97946000000013	454.46342999999996	1230.46329	461.9864800000001	408.96969999999993	1252.7955	416.7889300000001	699.28843	1230.87795	-17.11938999999984	647.81179	1242.96222	-78.19234999999985	581.28906	1255.22421	-84.64914999999986	-20.14045000000002	1219.50452	144.65585000000007	140.68699999999998	917.99007	197.31722000000008	171.49004999999997	917.99007	137.60669000000007	185.17370999999997	938.48594	179.9608800000001	24.464730000000017	1255.6981	-148.2100499999999	365.19383	1204.10299	-176.93981999999986	375.61948	1201.14116	-110.59478999999989	373.90161	1240.00039	-140.39080999999985	196.54713999999998	881.26336	189.2610400000001	83.28669999999998	520.27533	154.48913000000002	115.03753999999999	520.21609	103.42716000000004	405.4155	1166.25079	-160.11660999999987	245.83202000000003	824.92932	-209.2830199999999	263.01064	814.02978	-152.65279999999993	27.18960999999999	417.67748	55.682430000000025	190.68271	343.51322	106.15204000000004	139.38378999999998	329.17796	176.46592000000007	184.81828999999996	325.32758	152.00119000000007	59.53280999999999	396.3523	74.99357000000005	241.92239999999998	295.53155	187.72088000000005	171.49005000000002	703.55346	-148.03233999999992	347.54131	656.93424	-107.86989999999992	340.43292	637.44538	-193.64454999999995	367.85948	639.69638	-149.8094399999999	211.88943000000003	688.0927	-147.85462999999993	438.64725	620.20752	-151.4088299999999	
375	6.233	0.0	1250.01138	7.654112177073829E-14	59.769759999999984	1326.54511	135.0002800000001	79.19938000000002	1342.71671	-113.0827299999999	26.478769999999987	1393.06785	114.44517000000009	42.41343000000001	1406.33685	-89.50654999999992	-59.71052000000001	1199.71948	43.53892000000006	-51.71357999999999	1206.41322	-58.407319999999935	-59.23663	1275.30542	-3.021069999999929	-14.80916	1364.98968	3.613430000000082	37.43755	1458.52432	12.854350000000094	88.55876	1542.28492	21.088240000000106	316.61979	1583.3359	74.81586000000014	212.24485	1670.70994	42.946560000000126	149.45402	1617.75239	30.92152000000012	233.68851	1507.33531	59.414340000000124	246.72057	1699.08428	49.462590000000134	408.85123	1873.06227	63.738610000000165	357.37459	1795.1661	131.14990000000017	383.85337	1778.46137	3.0803000000001557	324.43903	1806.77648	54.912360000000156	222.49278999999999	1656.9078	226.58011000000013	288.42316	1634.57559	-119.42104999999987	291.79963999999995	1439.80555	312.76941000000016	275.39109999999994	1412.14204	269.5266700000002	398.95871	1413.2083	-98.27356999999988	360.81032	1391.11304	-67.23357999999988	376.92267999999996	1275.60161	406.7187100000001	411.6945799999999	1279.33352	380.1214600000001	265.14315999999997	1428.13593	304.35781000000014	544.977	1270.80344	-100.58379999999985	554.5141	1280.22206	-58.70349999999985	373.96085	1401.12403	-104.96730999999987	532.71502	1209.43429	462.2826700000001	454.40418999999997	1229.51551	463.23045000000013	408.91045999999994	1251.78848	417.97367000000014	699.58461	1230.04864	-16.29006999999984	648.10798	1242.19215	-77.42227999999984	581.58524	1254.39489	-83.87906999999986	-18.30412000000002	1220.98543	145.6036400000001	150.22409999999996	924.5061	202.8262200000001	179.66469999999998	923.49907	142.4641000000001	193.82225999999997	945.47586	183.87050000000008	24.87938000000002	1255.93505	-148.0915799999999	364.6607	1198.17933	-175.99202999999986	374.79016	1194.44742	-109.64699999999989	373.90161	1233.60284	-139.02836999999985	202.94469999999998	884.22519	192.10439000000008	65.39723999999998	533.12968	145.78135000000003	96.25952999999998	533.0112	94.12701000000004	407.13336	1161.33415	-158.33950999999985	264.61003	812.13421	-204.3663799999999	281.78865	802.77482	-147.4399699999999	2.7841199999999944	435.62618	45.49373000000003	162.42684	351.92482	93.29769000000005	110.89096999999998	339.12971	163.78928000000002	155.91080999999997	333.26528	138.85066000000006	34.06105999999999	412.22771	64.15327000000003	211.53400999999997	299.85583	173.50409000000005	199.15355000000002	686.61179	-139.08760999999996	378.34436	654.15011	-99.04364999999991	372.24299	631.87714	-184.1666899999999	399.66955	637.26767	-140.6277599999999	240.55996000000002	674.1721	-138.79142999999993	471.58282	623.22859	-142.28638999999993	
376	6.25	0.0	1250.01138	7.654112177073829E-14	59.532809999999984	1326.78206	134.94104000000007	79.91021000000002	1342.06511	-113.0827299999999	26.538009999999986	1393.30479	114.08975000000008	43.301980000000015	1405.9222	-89.86196999999991	-60.006710000000005	1200.0749	43.53892000000006	-51.65433999999999	1206.41322	-58.466549999999934	-59.17739	1275.54237	-3.258009999999929	-14.45374	1365.04892	3.198780000000082	37.97068	1458.46509	12.558170000000095	89.21037	1542.10721	21.029000000000106	317.09368	1582.92125	75.76365000000014	212.89645	1670.47299	43.59816000000013	150.10562	1617.51544	31.276940000000117	234.22164	1507.03912	59.88823000000012	247.37217	1698.90657	50.46961000000014	411.81306	1871.22593	64.68640000000018	359.68482	1793.86289	132.21616000000017	384.91963	1777.2174	3.9096200000001557	326.3346	1806.24335	56.33404000000016	222.61125999999996	1656.19696	227.23172000000014	289.84483	1634.33864	-118.47325999999987	291.68116999999995	1439.09471	313.24330000000015	275.15414999999996	1411.4312	270.0005600000002	399.84726	1413.03059	-97.97738999999987	361.46192	1390.75762	-67.41128999999987	377.15962999999994	1275.06848	407.1333600000001	411.99076999999994	1278.9781	380.5361200000001	264.9654499999999	1427.36586	304.8317000000002	545.62861	1270.38878	-100.46532999999985	555.1657	1279.74817	-58.585029999999854	374.73093	1400.88708	-104.90806999999987	533.0112	1209.25658	462.81580000000014	454.70037999999994	1229.16009	463.7043500000001	409.20664999999997	1251.37383	418.38832000000014	700.29545	1229.69322	-16.29006999999984	648.75958	1241.83673	-77.36303999999984	582.23684	1254.03947	-83.81982999999985	-16.70473000000002	1222.94024	146.49219000000008	162.54530999999997	934.04319	209.57920000000007	190.91965999999996	932.02915	148.6839400000001	205.07721999999998	955.78304	189.1425600000001	25.057090000000017	1254.69108	-148.15080999999992	362.64665	1185.50269	-176.58439999999985	372.83535	1181.71155	-110.23936999999988	373.13154	1220.74849	-139.85768999999985	211.65247999999997	891.0374	196.1917200000001	50.88426999999999	551.49303	139.08761000000004	80.97646999999999	551.37456	87.01861000000004	406.77794	1150.49384	-158.22103999999987	282.55873	793.71162	-198.67965999999993	300.44819	786.07009	-141.75325999999993	-17.415570000000002	458.61	37.43755000000003	138.37677	366.4378	82.22044000000004	86.90013999999998	354.88666	152.94898000000003	131.32760999999996	347.30437	127.53647000000002	12.854349999999993	433.43443	55.32701000000003	185.58835999999997	310.57766	161.06440000000006	224.50683000000004	666.35286	-130.79447999999994	405.35626	644.67225	-90.80975999999991	400.20268	620.20752	-175.39965999999993	427.39229	628.086	-132.09768999999991	266.5056	656.2234	-130.43905999999996	500.25335	617.77882	-133.5785999999999	
377	6.267	0.0	1250.01138	7.654112177073829E-14	59.058919999999986	1327.90755	134.52639000000008	80.68029000000001	1340.82114	-113.5566199999999	26.301059999999985	1394.37105	112.84578000000009	44.07205000000001	1404.97441	-91.16516999999992	-60.36213000000001	1200.60803	43.716630000000066	-51.47662999999999	1205.93933	-58.28883999999994	-59.11816	1275.60161	-3.791139999999929	-14.21679	1365.10816	2.1325200000000817	38.3261	1458.46509	11.373430000000095	89.7435	1541.98874	19.903510000000107	317.50834	1582.26965	75.52670000000015	213.60729	1670.05833	43.18350000000013	150.75723	1617.27849	30.447630000000117	234.51782	1506.56523	59.05892000000012	248.14225	1698.55115	50.410370000000135	415.13031	1868.9157	65.33800000000016	362.17276	1791.96732	132.63082000000017	386.34131	1775.79572	4.028090000000155	328.52635	1805.47327	57.044880000000155	222.37430999999998	1656.2562	226.69859000000014	291.0888	1634.39788	-118.82867999999986	291.91811999999993	1438.97624	312.17704000000015	275.39109999999994	1411.37197	268.87507000000016	401.32817	1413.38601	-98.45127999999987	362.70589	1390.87609	-68.24059999999987	377.92969999999997	1275.4239	406.12634000000014	412.7608399999999	1279.45199	379.5883300000001	265.14315999999997	1427.24738	303.70621000000017	546.87258	1270.50726	-101.47234999999986	556.46891	1279.80741	-59.59204999999985	376.09337	1401.18326	-105.55967999999987	533.89975	1210.08589	462.04572000000013	455.52968999999996	1229.81169	462.81580000000014	410.03595999999993	1251.84772	417.4405400000001	701.65789	1229.81169	-17.59327999999984	650.06279	1242.01444	-78.60700999999985	583.54005	1254.09871	-84.88608999999985	-15.223810000000018	1225.54665	147.3807400000001	177.41370999999998	947.01602	217.27996000000007	204.95873999999998	944.23189	156.0292900000001	218.64239999999998	969.88136	195.42165000000008	24.58320000000002	1251.25535	-148.3285199999999	358.08543	1165.18453	-179.01309999999987	368.8665	1162.51888	-112.72730999999989	370.70284	1200.72651	-143.29340999999985	223.02590999999998	901.81847	201.3453100000001	40.75479999999999	575.18769	134.40792000000002	70.19540999999998	575.00998	81.98350000000005	404.34924	1132.9598	-161.1828699999999	302.58071	768.23986	-192.04515999999992	322.72116	762.79009	-135.65187999999992	-32.461670000000005	487.99136	31.513890000000025	119.48027999999998	387.99993	72.68335000000005	68.18135999999998	377.21886	143.64883000000003	112.01646999999998	368.2149	117.64395000000005	-3.198780000000006	461.09793	48.574040000000025	164.91477999999998	328.40788	149.80944000000005	249.62316000000004	641.41424	-123.50837999999993	430.94649	625.77577	-82.8720499999999	426.68145	599.88936	-167.1065399999999	453.57488	609.24875	-123.9230299999999	291.91812	632.58798	-122.91600999999991	526.96907	600.89638	-124.98928999999988	
